<mxfile host="app.diagrams.net" modified="2023-10-10T14:13:49.682Z" agent="Mozilla/5.0 (Windows NT 10.0; Win64; x64) AppleWebKit/537.36 (KHTML, like Gecko) Chrome/117.0.0.0 Safari/537.36" etag="7vdmEIzJTXb6YSg1lOBO" version="22.0.4" type="github">
  <diagram name="Page-1" id="uF8d6Z5YZQ0IH_8VUQmD">
    <mxGraphModel dx="1167" dy="1905" grid="1" gridSize="10" guides="1" tooltips="1" connect="1" arrows="1" fold="1" page="1" pageScale="1" pageWidth="827" pageHeight="1169" math="0" shadow="0">
      <root>
        <mxCell id="0" />
        <mxCell id="1" parent="0" />
        <mxCell id="lB7tE4sDJ6YOISGpc0Tp-2" value="Guest" style="shape=umlActor;verticalLabelPosition=bottom;verticalAlign=top;html=1;outlineConnect=0;" vertex="1" parent="1">
          <mxGeometry x="160" y="350" width="30" height="60" as="geometry" />
        </mxCell>
        <mxCell id="lB7tE4sDJ6YOISGpc0Tp-3" value="" style="rounded=0;whiteSpace=wrap;html=1;fillColor=none;" vertex="1" parent="1">
          <mxGeometry x="240" y="-400" width="400" height="1400" as="geometry" />
        </mxCell>
        <mxCell id="lB7tE4sDJ6YOISGpc0Tp-4" value="Family Member Adding" style="ellipse;whiteSpace=wrap;html=1;" vertex="1" parent="1">
          <mxGeometry x="310" y="460" width="120" height="80" as="geometry" />
        </mxCell>
        <mxCell id="lB7tE4sDJ6YOISGpc0Tp-12" value="" style="endArrow=none;html=1;rounded=0;entryX=0;entryY=0.5;entryDx=0;entryDy=0;exitX=0.5;exitY=0.5;exitDx=0;exitDy=0;exitPerimeter=0;" edge="1" parent="1" source="lB7tE4sDJ6YOISGpc0Tp-2" target="lB7tE4sDJ6YOISGpc0Tp-4">
          <mxGeometry width="50" height="50" relative="1" as="geometry">
            <mxPoint x="360" y="270" as="sourcePoint" />
            <mxPoint x="410" y="220" as="targetPoint" />
          </mxGeometry>
        </mxCell>
        <mxCell id="lB7tE4sDJ6YOISGpc0Tp-13" value="Validate User" style="ellipse;whiteSpace=wrap;html=1;" vertex="1" parent="1">
          <mxGeometry x="510" y="-300" width="120" height="80" as="geometry" />
        </mxCell>
        <mxCell id="lB7tE4sDJ6YOISGpc0Tp-15" value="&lt;div&gt;User Account Delete&lt;/div&gt;" style="ellipse;whiteSpace=wrap;html=1;" vertex="1" parent="1">
          <mxGeometry x="310" y="570" width="120" height="80" as="geometry" />
        </mxCell>
        <mxCell id="lB7tE4sDJ6YOISGpc0Tp-16" value="&lt;div&gt;Book Reservation History Checking&lt;/div&gt;" style="ellipse;whiteSpace=wrap;html=1;" vertex="1" parent="1">
          <mxGeometry x="310" y="670" width="120" height="80" as="geometry" />
        </mxCell>
        <mxCell id="lB7tE4sDJ6YOISGpc0Tp-17" value="&lt;div&gt;Points &amp;amp; Promotion&lt;/div&gt;" style="ellipse;whiteSpace=wrap;html=1;" vertex="1" parent="1">
          <mxGeometry x="310" y="770" width="120" height="80" as="geometry" />
        </mxCell>
        <mxCell id="lB7tE4sDJ6YOISGpc0Tp-18" value="Addin Guest" style="shape=umlActor;verticalLabelPosition=bottom;verticalAlign=top;html=1;outlineConnect=0;" vertex="1" parent="1">
          <mxGeometry x="160" y="525" width="30" height="60" as="geometry" />
        </mxCell>
        <mxCell id="lB7tE4sDJ6YOISGpc0Tp-20" value="" style="endArrow=none;html=1;rounded=0;entryX=0;entryY=0.5;entryDx=0;entryDy=0;exitX=0.5;exitY=0.5;exitDx=0;exitDy=0;exitPerimeter=0;" edge="1" parent="1" source="lB7tE4sDJ6YOISGpc0Tp-18" target="lB7tE4sDJ6YOISGpc0Tp-4">
          <mxGeometry width="50" height="50" relative="1" as="geometry">
            <mxPoint x="430" y="590" as="sourcePoint" />
            <mxPoint x="480" y="540" as="targetPoint" />
          </mxGeometry>
        </mxCell>
        <mxCell id="lB7tE4sDJ6YOISGpc0Tp-22" value="" style="endArrow=classic;html=1;rounded=0;entryX=0;entryY=1;entryDx=0;entryDy=0;exitX=1;exitY=0;exitDx=0;exitDy=0;dashed=1;strokeWidth=2;" edge="1" parent="1" source="lB7tE4sDJ6YOISGpc0Tp-4" target="lB7tE4sDJ6YOISGpc0Tp-13">
          <mxGeometry width="50" height="50" relative="1" as="geometry">
            <mxPoint x="410" y="480" as="sourcePoint" />
            <mxPoint x="460" y="420" as="targetPoint" />
          </mxGeometry>
        </mxCell>
        <mxCell id="lB7tE4sDJ6YOISGpc0Tp-23" value="" style="endArrow=classic;html=1;rounded=0;entryX=0;entryY=1;entryDx=0;entryDy=0;exitX=1;exitY=0;exitDx=0;exitDy=0;dashed=1;strokeWidth=2;" edge="1" parent="1" source="lB7tE4sDJ6YOISGpc0Tp-15" target="lB7tE4sDJ6YOISGpc0Tp-13">
          <mxGeometry width="50" height="50" relative="1" as="geometry">
            <mxPoint x="422" y="482" as="sourcePoint" />
            <mxPoint x="538" y="-222" as="targetPoint" />
          </mxGeometry>
        </mxCell>
        <mxCell id="lB7tE4sDJ6YOISGpc0Tp-24" value="" style="endArrow=classic;html=1;rounded=0;entryX=0;entryY=1;entryDx=0;entryDy=0;exitX=1;exitY=0;exitDx=0;exitDy=0;dashed=1;strokeWidth=2;" edge="1" parent="1" source="lB7tE4sDJ6YOISGpc0Tp-16" target="lB7tE4sDJ6YOISGpc0Tp-13">
          <mxGeometry width="50" height="50" relative="1" as="geometry">
            <mxPoint x="432" y="492" as="sourcePoint" />
            <mxPoint x="548" y="-212" as="targetPoint" />
          </mxGeometry>
        </mxCell>
        <mxCell id="lB7tE4sDJ6YOISGpc0Tp-25" value="" style="endArrow=classic;html=1;rounded=0;entryX=0;entryY=1;entryDx=0;entryDy=0;exitX=1;exitY=0;exitDx=0;exitDy=0;dashed=1;strokeWidth=2;" edge="1" parent="1" source="lB7tE4sDJ6YOISGpc0Tp-17" target="lB7tE4sDJ6YOISGpc0Tp-13">
          <mxGeometry width="50" height="50" relative="1" as="geometry">
            <mxPoint x="442" y="502" as="sourcePoint" />
            <mxPoint x="558" y="-202" as="targetPoint" />
          </mxGeometry>
        </mxCell>
        <mxCell id="lB7tE4sDJ6YOISGpc0Tp-26" value="Actor" style="shape=umlActor;verticalLabelPosition=bottom;verticalAlign=top;html=1;outlineConnect=0;" vertex="1" parent="1">
          <mxGeometry x="160" y="700" width="30" height="60" as="geometry" />
        </mxCell>
      </root>
    </mxGraphModel>
  </diagram>
</mxfile>
